HIERARCHY
ROOT Spine
{
    OFFSET 0.0 0.0 -0.0
    CHANNELS 6 Xposition Yposition Zposition Zrotation Xrotation Yrotation
    JOINT ShoulderCenter
    {
        OFFSET 0.0 34.96759796142578 0.0
        CHANNELS 3 Zrotation Xrotation Yrotation
        JOINT LeftShoulder
        {
            OFFSET 18.57907485961914 0.0 0.0
            CHANNELS 3 Zrotation Xrotation Yrotation
            JOINT LeftElbow
            {
                OFFSET 29.718101501464844 0.0 0.0
                CHANNELS 3 Zrotation Xrotation Yrotation
                JOINT LeftHand
                {
                    OFFSET 33.27631378173828 0.0 0.0
                    CHANNELS 3 Zrotation Xrotation Yrotation
                    End Site
                    {
                        OFFSET 13.310523986816406 0.0 0.0
                    }
                }
            }
        }
        JOINT RightShoulder
        {
            OFFSET -18.57907485961914 0.0 0.0
            CHANNELS 3 Zrotation Xrotation Yrotation
            JOINT RightElbow
            {
                OFFSET -29.718101501464844 0.0 0.0
                CHANNELS 3 Zrotation Xrotation Yrotation
                JOINT RightHand
                {
                    OFFSET -33.27631378173828 0.0 0.0
                    CHANNELS 3 Zrotation Xrotation Yrotation
                    End Site
                    {
                        OFFSET -13.310523986816406 0.0 0.0
                    }
                }
            }
        }
        End Site
        {
            OFFSET 0.0 13.987040519714355 0.0
        }
    }
    JOINT LeftHip
    {
        OFFSET 17.950773015819365 -17.950773015819365 0.0
        CHANNELS 3 Zrotation Xrotation Yrotation
        JOINT LeftKnee
        {
            OFFSET 0.0 -41.610260009765625 0.0
            CHANNELS 3 Zrotation Xrotation Yrotation
            JOINT LeftFoot
            {
                OFFSET 0.0 -43.746681213378906 0.0
                CHANNELS 3 Zrotation Xrotation Yrotation
                End Site
                {
                    OFFSET 0.0 0.0 17.498674392700195
                }
            }
        }
    }
    JOINT RightHip
    {
        OFFSET -17.950773015819365 -17.950773015819365 0.0
        CHANNELS 3 Zrotation Xrotation Yrotation
        JOINT RightKnee
        {
            OFFSET 0.0 -41.610260009765625 0.0
            CHANNELS 3 Zrotation Xrotation Yrotation
            JOINT RightFoot
            {
                OFFSET 0.0 -43.746681213378906 0.0
                CHANNELS 3 Zrotation Xrotation Yrotation
                End Site
                {
                    OFFSET 0.0 0.0 17.498674392700195
                }
            }
        }
    }
}
MOTION
Frames: 11
Frame Time: 0.03333333333333333
-11.399999618530273 12.100000381469727 -8.199999809265137 -0.9821161112532095 2.4536708573670447 81.95926263838271 -1.0473493328897703e-07 1.2485085140827997e-07 -1.328437184336182 98.82733977593136 30.19178169358128 174.76232784480038 1.0704858795410426e-06 -2.6813694066117937e-06 48.493187309439335 -3.531125038440127e-31 6.3611093629270335e-15 6.3611093629270335e-15 -101.0871106341623 7.80865259647109 -168.8085700982231 -3.921346335653695e-06 4.86254555555798e-06 -34.92896142149411 -6.361109362927033e-15 0.0 0.0 -2.754324508369674 -8.847795938301799 -4.50039450508506 6.668143793011052 8.17392397313761 -24.226558313857456 3.975693351829396e-16 -1.9878466759146985e-16 -7.305336533986514e-15 3.2640066783254023 0.17602901232026794 18.09420764510613 -9.00804384070523 2.2109307233147453 4.769573875333646 0.0 0.0 -2.7705613045561103e-15
-11.5 12.100000381469727 -7.90000057220459 -0.9849313399963457 2.460692150450487 82.52868313690482 -3.6197379052194814e-08 -1.0717733992884925e-08 -1.7441283317356384 98.67775710071093 26.8068339939772 174.9192582245592 2.159120999001987e-06 1.2426141474103402e-06 44.582991528775665 0.0 0.0 0.0 -100.81339155593622 7.242599184248071 -169.21702515114066 2.1110941373856073e-06 -3.4443884165421624e-06 -34.51318969987007 6.3611093629270335e-15 0.0 0.0 -2.8122574535397957 -9.073542635811405 -3.3394891077789257 7.140928002337395 8.260264331347328 -24.96008242649615 7.951386703658792e-16 7.951386703658792e-16 3.4787316828507214e-15 3.5514905335138995 0.038190395714287416 17.248295356433676 -9.110522792345554 2.451953121782204 5.276600784230444 0.0 0.0 3.845240913722493e-15
-11.699999809265137 12.100000381469727 -7.599999904632568 -1.3131406797618788 2.4604091284965883 82.49205892030555 -1.9213384781223767e-07 -1.7681521507680783e-07 -1.0615565460563066 98.27359865792494 22.264841513953275 175.11538334116867 8.943391679270476e-07 -9.890702340816677e-07 41.651556130896005 3.531125038440127e-31 -6.3611093629270335e-15 6.3611093629270335e-15 -100.66919268294693 7.570536357958218 -169.42785067516894 -4.903249059138346e-06 2.228971676694731e-06 -34.62973825181584 -3.531125038440127e-31 6.3611093629270335e-15 6.3611093629270335e-15 -2.745581663061129 -9.534403004527665 -3.0074632369207333 7.590088679478399 8.290576445127437 -25.69941056161268 7.951386703658792e-16 7.951386703658792e-16 -1.4908850069360234e-15 3.613118111539298 -0.42083272962474627 17.182253586137943 -8.864389359058709 2.397901182731851 5.154534741860966 3.975693351829396e-16 -1.6810775939839472e-32 -4.8453762725420764e-15
-11.90000057220459 12.0 -7.299999713897705 -1.6365785234980803 2.4530317851415413 82.77968278917035 1.7766659607335495e-07 1.2282937077012817e-07 -0.8857145238362142 97.78999065157534 17.939318389459817 174.86472345159464 -9.803629800622833e-06 5.835549750114229e-06 39.993279831026086 -3.1805546814635168e-15 1.7655625192200634e-31 -6.3611093629270335e-15 -100.59825278473826 8.151701734513393 -169.65820613251387 -6.968167103642008e-07 -1.022135546757055e-06 -35.175910962068265 -9.54166404439055e-15 -6.3611093629270335e-15 -5.29668755766019e-31 -2.7300358957383084 -9.993236292858867 -2.330934673601515 7.972030616884864 8.220270465224504 -25.828105316049502 7.951386703658791e-16 3.9756933518293955e-16 -2.9320738469741793e-15 3.9840478640628385 -0.995030259023754 16.461645025729567 -8.987631840063635 2.6129027463400054 5.55683775270387 -8.276074308844047e-33 -3.9756933518293955e-16 -2.385416011097637e-15
-12.199999809265137 12.0 -6.899999618530273 -2.2906095723316775 2.4520724776587106 83.28242785174632 4.827369797411522e-08 1.0518792378501637e-07 -1.039345119164379 97.538556777839 13.412818670274604 173.7064855544637 -1.893811169214248e-06 -1.3166075199250234e-06 33.58829817964057 3.180554681463516e-15 -6.3611093629270335e-15 -1.2722218725854067e-14 -100.46389095953627 8.347930251242646 -170.01792370836358 1.974439714943511e-06 2.760710781622154e-06 -35.758781185496545 -6.3611093629270335e-15 0.0 0.0 -2.2958517081021386 -10.839510534478809 -1.7674197432774899 7.853096526800872 7.912407127594518 -25.48327279756063 0.0 0.0 -2.2860236773019026e-15 4.208601262117557 -1.7966613585893274 16.255672682142663 -8.991003467195501 2.6587868868899625 5.694910797727497 3.975693351829396e-16 2.4354072835921286e-33 7.019583574323777e-16
-12.399999618530273 12.0 -6.599999904632568 -2.9440466914773906 2.613963170757622 83.5745933395434 4.0138134215568504e-07 -1.72633647776559e-07 -0.86361882584505 97.80238804306369 13.694599707680817 174.16260419488978 1.2430591359722684e-06 3.1201943588584135e-06 33.839755978867785 3.1805546814635168e-15 0.0 0.0 -100.47294258799413 8.71456609946596 -170.41788987022383 -5.214979423183699e-06 -2.6921215959898466e-06 -36.30521185517082 3.1805546814635164e-15 1.7655625192200634e-31 6.361109362927033e-15 -2.269986531409974 -11.747941979765082 -0.847470104344853 7.993730727410469 7.880721386768975 -25.571289221682214 2.758691436281349e-33 7.951386703658791e-16 -3.9756933518293955e-16 4.42212653409482 -2.7248628311870937 15.584274595066555 -9.115825654857604 2.878878934431868 6.13343028386144 1.987846675914698e-16 -5.533547080197159e-33 -3.1898727127568667e-15
-12.600000381469727 12.0 -6.300000190734863 -3.4336308153522945 2.7757689175150078 84.11856544570279 -2.14325469102675e-07 2.101125940105541e-07 -0.7904551866479389 97.73718544123179 14.484572522697038 174.33895713106244 -1.4617895029311996e-06 5.1727640678221565e-06 33.99293165090254 3.180554681463516e-15 -3.531125038440127e-31 -1.2722218725854064e-14 -100.82327257776146 8.08964978229249 -170.3303116255005 -8.96305789162955e-07 2.0827920496560444e-06 -36.68108439699363 -3.1805546814635168e-15 1.7655625192200634e-31 -6.3611093629270335e-15 -2.326167974502824 -12.483429333194952 0.32812787782555486 8.066516278580291 7.635223625041771 -24.52096400494842 7.951386703658792e-16 -3.9756933518293955e-16 9.442271710594815e-15 4.2884897013767596 -3.2665429666876062 15.225545491450495 -9.000289857605162 2.74912155043648 5.934085087910368 -1.987846675914698e-16 2.8987812357800115e-33 -1.671033611940793e-15
-12.899999618530273 12.100000381469727 -6.099999904632568 -3.9339168511924 2.9455225329151045 84.64851319323806 1.968577561096412e-07 3.254981478899865e-07 -0.9736832190580713 97.42924745798433 15.139805122323104 174.5173803816851 -3.946068508923059e-06 2.1337382069836813e-06 33.852002824879435 6.361109362927033e-15 0.0 0.0 -101.02601989118986 7.829606137058287 -170.5883281848229 3.7282659761402333e-06 -1.971791822675794e-06 -36.54036272884556 -6.3611093629270335e-15 -6.3611093629270335e-15 -3.531125038440127e-31 -2.2600603590460016 -13.239078426671158 1.0850223339127014 7.823594988394141 7.4587989010558005 -24.227857572388938 0.0 0.0 -9.939233379573492e-16 4.291486373828071 -3.940437940646715 14.921194445127789 -9.004928436776318 2.7834468984496006 5.997781891739633 0.0 0.0 -1.6368674971985088e-15
-13.09999942779541 12.0 -5.799999713897705 -4.248453304975209 3.098769879917691 85.17889173087887 2.2013976709911361e-07 7.35296270055753e-08 -0.8801322719364995 97.18165611543257 15.077387893866993 174.31931150883224 1.3982435917831722e-06 5.3382902760628745e-06 33.919942427989334 0.0 0.0 0.0 -101.3426597275747 8.244104398507005 -170.5900107921454 -4.2603969697141955e-06 -5.985538774769157e-06 -36.19619492890457 0.0 0.0 0.0 -2.334931074353087 -13.934381726348942 2.515513540191194 8.187425152931816 7.460777211315134 -24.544886293766417 0.0 0.0 1.0436195048552165e-15 4.282305752574501 -4.4292189842695935 14.279415149926368 -9.17413913441968 2.65740976999786 5.7677535879068085 1.9878466759146975e-16 7.112251359162853e-33 4.099933769074064e-15
-13.300000190734863 12.0 -5.5 -4.750054050276879 3.1054966298446995 85.4685209087945 -1.4780281883951798e-07 2.044138788283694e-07 -0.6673459674575344 96.8257734656781 15.139480842713462 174.32512184413395 1.8837486042741113e-06 -8.859700228202253e-07 33.67479027751294 0.0 0.0 -6.361109362927033e-15 -101.44171304309043 8.586888983675292 -170.82862812430528 3.049848951639111e-07 -4.016496766905884e-06 -36.02597119081193 3.180554681463516e-15 -3.531125038440127e-31 -1.2722218725854064e-14 -2.20959467309505 -14.679642098480246 3.4211586429936025 8.198259433819214 7.426618851181552 -24.358555121737027 -9.655420026984722e-33 -7.951386703658792e-16 -1.3914926731402886e-15 4.327546135031064 -5.0858457831389465 13.893974136680217 -8.9371333059274 2.602131584020483 5.666559373995971 0.0 0.0 -3.242674890085851e-15
-13.40000057220459 12.0 -5.200000286102295 -4.913061388812718 3.1047518585768605 85.4667972801154 1.204359006110017e-07 -6.192125193683677e-08 -0.04256760990564139 96.62842631594873 14.361656351402315 174.19492989991548 -1.9806067161276275e-06 1.605483964870961e-06 32.77125698178449 0.0 -3.1805546814635168e-15 0.0 -101.68364255140446 9.186431523274884 -170.64906943771493 -3.86854072175572e-06 -1.3450996766956433e-06 -35.64283355425577 0.0 6.3611093629270335e-15 0.0 -1.7488724834820657 -15.099585230860036 4.838517213368677 7.9358563992507 7.274129635470168 -24.237795744402405 -7.951386703658792e-16 7.951386703658792e-16 -2.1866313435061676e-15 4.795700692782546 -5.624847516758307 12.797168653941862 -9.216053172094973 2.866600685992697 6.167875496327408 1.987846675914698e-16 -1.987846675914698e-16 -2.6463208873114415e-15
